<svg width="24" height="24" xmlns="http://www.w3.org/2000/svg" fill-rule="evenodd" clip-rule="evenodd">
    <path d="M4.861 9.713c-.131-.146-.242-.299-.33-.459v-3.181l7.107 3.804 7.852-3.298v2.675c-.074.15-.169.294-.284.431.342.948.392 2.073.399 2.623 1.229-.437 2.398.593 2.398 2.492 0 3.208-2.462 4.017-2.561 4.053-2.414 4.776-6.276 5.147-7.404 5.147-1.128 0-4.99-.372-7.403-5.147-.1-.036-2.563-.845-2.563-4.061 0-2.003 1.289-2.917 2.4-2.48.007-.551.056-1.659.389-2.599zm13.52.669c-1.62 1.032-4.431 1.524-6.371 1.524-2.107 0-4.736-.501-6.319-1.508-.156.621-.241 1.298-.241 2.033 0 .528-.425.918-.897.918-.121 0-.244-.026-.365-.08-.06-.029-.152-.051-.256-.051-.112 0-.236.026-.344.099-.898.595-.804 3.838 1.393 4.598.219.076.403.238.509.451 2.16 4.299 5.557 4.634 6.548 4.634.99 0 4.389-.335 6.547-4.634.108-.213.291-.375.51-.451 2.197-.76 2.291-4.003 1.393-4.598-.365-.245-.632.032-.964.032-.472 0-.898-.388-.898-.918 0-.741-.085-1.424-.245-2.049zm4.619-.373h-2.99l1.012-2.002-.015-3.142-9.316 3.907-9.691-5.12 10.451-3.651 9.552 4.446v3.56l.997 2.002z"/>
</svg>